<svg xmlns="http://www.w3.org/2000/svg" width="14" height="12.211" viewBox="0 0 14 12.211">
  <defs>
    <style>
      .cls-1 {
        fill: #fff;
      }
    </style>
  </defs>
  <path id="考试管理tb" class="cls-1" d="M2.038,8.409h.483a.4.4,0,0,0,0-.805H2.038A1.254,1.254,0,0,1,.794,6.343V5.868A1.254,1.254,0,0,1,2.038,4.607h.483a.4.4,0,0,0,0-.805H2.038A1.254,1.254,0,0,1,.794,2.541V2.066A1.254,1.254,0,0,1,2.038.805h9.872a2.067,2.067,0,0,0-.425,1.261v.475A2.067,2.067,0,0,0,11.909,3.8H6.777a.4.4,0,0,0,0,.805h5.132a2.067,2.067,0,0,0-.425,1.261v.475A2.067,2.067,0,0,0,11.909,7.6H6.733a.4.4,0,0,0,0,.805h5.176a2.067,2.067,0,0,0-.425,1.261v.475a2.067,2.067,0,0,0,.425,1.261H2.038A1.254,1.254,0,0,1,.794,10.145V9.669A1.254,1.254,0,0,1,2.038,8.409m11.484,0H13.6a.4.4,0,0,0,0-.805h-.081a1.254,1.254,0,0,1-1.244-1.261V5.868a1.254,1.254,0,0,1,1.244-1.261.4.4,0,0,0,0-.805,1.254,1.254,0,0,1-1.244-1.261V2.066A1.254,1.254,0,0,1,13.522.805a.4.4,0,0,0,.4-.4.4.4,0,0,0-.4-.4c-.026,0-.051,0-.076,0L2.038,0A2.054,2.054,0,0,0,0,2.066v.475A2.063,2.063,0,0,0,.832,4.2,2.062,2.062,0,0,0,0,5.868v.475A2.063,2.063,0,0,0,.832,8.006,2.063,2.063,0,0,0,0,9.669v.475A2.054,2.054,0,0,0,2.038,12.21H13.4a.24.24,0,0,0,.039,0h0c.025,0,.05,0,.076,0a.4.4,0,0,0,0-.805,1.254,1.254,0,0,1-1.244-1.261V9.669a1.254,1.254,0,0,1,1.244-1.261m-9.665.416V2.862H5.289V8.824l-.435-.441a.4.4,0,0,0-.561,0Zm-.549,1.343a.39.39,0,0,0,.3,0,.4.4,0,0,0,.129-.087l.832-.844.832.843a.392.392,0,0,0,.433.088.4.4,0,0,0,.215-.218.4.4,0,0,0,.03-.154V2.46a.4.4,0,0,0-.4-.4H3.46a.4.4,0,0,0-.4.4V9.8a.4.4,0,0,0,.245.372Z"/>
</svg>
