<svg xmlns="http://www.w3.org/2000/svg" width="13.999" height="12.502" viewBox="0 0 13.999 12.502">
  <defs>
    <style>
      .cls-1 {
        fill: #fff;
      }
    </style>
  </defs>
  <g id="题库管理tb" transform="translate(-16.509 -44.032)">
    <path id="路径_171" data-name="路径 171" class="cls-1" d="M766.577,351.787h-1.952a.7.7,0,0,1-.721-.72v-6.794a.7.7,0,0,1,.721-.72h1.952a.7.7,0,0,1,.72.72v6.794A.7.7,0,0,1,766.577,351.787Zm-.1-7.514h-1.852v6.794l1.852-.1Z" transform="translate(-736.788 -295.255)"/>
    <path id="路径_173" data-name="路径 173" class="cls-1" d="M444.529,56.532h-1.852a.812.812,0,0,1-.821-.825V44.857a.813.813,0,0,1,.821-.825h1.751a.812.812,0,0,1,.821.825V55.809a.706.706,0,0,1-.72.723Zm-1.852-11.675V55.809h1.852V44.857Z" transform="translate(-419.31 0)"/>
    <path id="路径_174" data-name="路径 174" class="cls-1" d="M19.7,118.144l2.766-9.639a.6.6,0,0,0-.425-.767l-1.981-.572a.659.659,0,0,0-.764.427l-2.759,9.632a.6.6,0,0,0,.425.767l1.981.572C19.332,118.68,19.714,118.47,19.7,118.144Zm-.663-.3-1.779-.514,2.7-9.436,1.779.514Z" transform="translate(0 -62.227)"/>
  </g>
</svg>
