<svg xmlns="http://www.w3.org/2000/svg" width="14" height="14.15" viewBox="0 0 14 14.15">
  <defs>
    <style>
      .cls-1 {
        fill: #fff;
      }
    </style>
  </defs>
  <path id="随堂管理tb" class="cls-1" d="M25.185,20.706a.443.443,0,0,1-.44.447H17.753a2.242,2.242,0,0,1-2.393-2.018V9.518a2.529,2.529,0,0,1,2.4-2.35h8.3a2.158,2.158,0,0,1,1.961,2.35v.44a.433.433,0,1,1-.865,0v-.44c0-.721-.382-1.492-1.1-1.492h-8.3a1.7,1.7,0,0,0-1.543,1.492v9.609c0,.721.815,1.132,1.543,1.132h6.992A.446.446,0,0,1,25.185,20.706Zm-.433-9.6a.435.435,0,0,0-.44-.433h-5.68a.433.433,0,1,0,0,.865h5.68A.445.445,0,0,0,24.753,11.1ZM23.2,14.146a.434.434,0,0,0-.433-.433H18.4a.433.433,0,1,0,0,.865h4.361A.439.439,0,0,0,23.2,14.146Zm-4.563,2.646a.433.433,0,1,0,0,.865h2.624a.433.433,0,1,0,0-.865H18.633Zm10.719-3.777v6.264c0,.187.043.375-.072.526l-1.038,1.161a.818.818,0,0,1-.67.353.847.847,0,0,1-.685-.346h.007L25.7,19.8a1.008,1.008,0,0,1-.274-.526V13.014a1.669,1.669,0,0,1,1.521-1.485h1.312C28.97,11.529,29.352,12.293,29.352,13.014Zm-3.078.7h2.184v-.7c0-.238.029-.627-.209-.627H26.937a.877.877,0,0,0-.663.627v.7Zm2.184,5.565V14.607H26.274v4.671l1.2,1.168H27.42Z" transform="translate(-15.36 -7.168)"/>
</svg>
