<svg xmlns="http://www.w3.org/2000/svg" width="14" height="12.5" viewBox="0 0 14 12.5">
  <defs>
    <style>
      .cls-1 {
        fill: #fff;
      }
    </style>
  </defs>
  <g id="统计tb" transform="translate(-215.369 -275.179)">
    <path id="路径_167" data-name="路径 167" class="cls-1" d="M228.831,277.267a.537.537,0,0,1-.538-.537V276.3a.048.048,0,0,0-.048-.048H216.494a.048.048,0,0,0-.047.048v10.257a.048.048,0,0,0,.047.048h11.751a.049.049,0,0,0,.048-.048v-2.065a.538.538,0,0,1,1.076,0v2.065a1.122,1.122,0,0,1-1.124,1.121H216.493a1.123,1.123,0,0,1-1.124-1.121V276.3a1.123,1.123,0,0,1,1.125-1.121h11.751a1.122,1.122,0,0,1,1.125,1.121v.429a.537.537,0,0,1-.538.537Z" transform="translate(0 0)"/>
    <path id="路径_168" data-name="路径 168" class="cls-1" d="M343.327,412.9a.536.536,0,0,1,.093-.753l3.418-2.667,2.15,2.3,4.122-3.713.717.8-4.9,4.417-2.2-2.349L344.079,413a.536.536,0,0,1-.752-.093Z" transform="translate(-124.776 -129.466)"/>
    <path id="路径_169" data-name="路径 169" class="cls-1" d="M657.5,390.881a.536.536,0,0,1,.536-.537h2.987v2.987a.536.536,0,0,1-1.073,0v-1.914h-1.914A.536.536,0,0,1,657.5,390.881Z" transform="translate(-431.65 -112.165)"/>
  </g>
</svg>
