<svg xmlns="http://www.w3.org/2000/svg" width="14" height="14" viewBox="0 0 14 14">
  <defs>
    <style>
      .cls-1 {
        fill: #fff;
      }
    </style>
  </defs>
  <path id="科目_知识点管理tb" data-name="科目/知识点管理tb" class="cls-1" d="M114.083,142.419h-3.891a1.264,1.264,0,0,1-1.264-1.264v-3.891A1.266,1.266,0,0,1,110.192,136h3.891a1.266,1.266,0,0,1,1.264,1.264v3.891A1.264,1.264,0,0,1,114.083,142.419Zm-3.891-5.446a.292.292,0,0,0-.291.291v3.891a.292.292,0,0,0,.291.292h3.891a.293.293,0,0,0,.292-.292v-3.891a.293.293,0,0,0-.292-.291ZM114.083,150h-3.891a1.266,1.266,0,0,1-1.264-1.264v-3.892a1.265,1.265,0,0,1,1.264-1.264h3.891a1.265,1.265,0,0,1,1.264,1.264v3.891A1.266,1.266,0,0,1,114.083,150Zm-3.891-5.447a.293.293,0,0,0-.291.292v3.891a.292.292,0,0,0,.291.291h3.891a.292.292,0,0,0,.292-.291v-3.892a.293.293,0,0,0-.292-.292h-3.891ZM121.663,150h-3.89a1.266,1.266,0,0,1-1.264-1.264v-3.892a1.265,1.265,0,0,1,1.264-1.264h3.891a1.265,1.265,0,0,1,1.264,1.264v3.891A1.266,1.266,0,0,1,121.663,150Zm-3.89-5.447a.293.293,0,0,0-.292.292v3.891a.292.292,0,0,0,.292.291h3.891a.292.292,0,0,0,.291-.291v-3.892a.293.293,0,0,0-.291-.292h-3.891Zm3.89-2.133h-3.89a1.264,1.264,0,0,1-1.264-1.264v-3.891A1.266,1.266,0,0,1,117.773,136h3.891a1.266,1.266,0,0,1,1.264,1.264v3.891A1.266,1.266,0,0,1,121.663,142.419Zm-3.89-5.446a.292.292,0,0,0-.292.291v3.891a.293.293,0,0,0,.292.292h3.891a.292.292,0,0,0,.291-.292v-3.891a.292.292,0,0,0-.291-.291Z" transform="translate(-108.928 -136)"/>
</svg>
