<svg xmlns="http://www.w3.org/2000/svg" width="13.979" height="14" viewBox="0 0 13.979 14">
  <defs>
    <style>
      .cls-1 {
        fill: #fff;
      }
    </style>
  </defs>
  <path id="管理员管理tb" class="cls-1" d="M18.451,16.276a1.377,1.377,0,1,0,1.377,1.377A1.379,1.379,0,0,0,18.451,16.276Zm0,2.045a.667.667,0,1,1,.667-.667A.667.667,0,0,1,18.451,18.321ZM22.1,16.937a.478.478,0,0,0-.447-.447h-.035a.783.783,0,0,1-.781-.781,1.055,1.055,0,0,1,.064-.3.571.571,0,0,0-.213-.7l-.909-.5a.5.5,0,0,0-.227-.043.629.629,0,0,0-.44.177,1.219,1.219,0,0,1-.625.355,1.165,1.165,0,0,1-.625-.369.617.617,0,0,0-.44-.177.589.589,0,0,0-.227.043l-.014.007-.937.511-.021.014a.567.567,0,0,0-.192.682.883.883,0,0,1,.071.3.783.783,0,0,1-.781.781h-.035a.485.485,0,0,0-.447.447,4.667,4.667,0,0,0-.078.724,4.667,4.667,0,0,0,.078.724.478.478,0,0,0,.447.447h.035a.783.783,0,0,1,.781.781,1.055,1.055,0,0,1-.064.3.568.568,0,0,0,.206.7l.895.5a.5.5,0,0,0,.227.05.611.611,0,0,0,.44-.185,1.2,1.2,0,0,1,.639-.383,1.192,1.192,0,0,1,.639.39.605.605,0,0,0,.447.192.548.548,0,0,0,.248-.057l.909-.5.021-.014a.567.567,0,0,0,.192-.682.883.883,0,0,1-.071-.3.783.783,0,0,1,.781-.781h.035a.485.485,0,0,0,.447-.447,4.747,4.747,0,0,0,.078-.724,6.389,6.389,0,0,0-.071-.731Zm-.682,1.2a1.487,1.487,0,0,0-1.292,1.477,1.449,1.449,0,0,0,.078.447l-.653.362c-.064-.057-.156-.142-.27-.227a1.439,1.439,0,0,0-.831-.327,1.406,1.406,0,0,0-.824.319c-.114.085-.206.17-.27.227l-.625-.348a1.462,1.462,0,0,0-1.214-1.924,4.383,4.383,0,0,1-.043-.476,4.383,4.383,0,0,1,.043-.476,1.487,1.487,0,0,0,1.292-1.477,1.449,1.449,0,0,0-.078-.447l.674-.369q.13.116.27.22a1.377,1.377,0,0,0,.809.3,1.445,1.445,0,0,0,.809-.3,2.73,2.73,0,0,0,.263-.213l.646.355a1.462,1.462,0,0,0,1.214,1.924,4.738,4.738,0,0,1,.043.476,3.114,3.114,0,0,1-.043.476ZM9.108,20.153v-.781a5.126,5.126,0,0,1,4.657-5.083h.007c.156-.014.327-.021.483-.021h.071a3.478,3.478,0,0,0,1.9-.589l.227-.177a3.514,3.514,0,0,0,1.37-2.783,3.571,3.571,0,0,0-7.142,0,3.494,3.494,0,0,0,1.37,2.783l.227.177-.263.106a6,6,0,0,0-3.827,5.587v1.235a.455.455,0,0,0,.461.454h6.73a4.575,4.575,0,0,1-.554-.909ZM11.6,10.725a2.648,2.648,0,1,1,2.648,2.634A2.645,2.645,0,0,1,11.6,10.725Z" transform="translate(-8.192 -7.168)"/>
</svg>
