<svg id="试卷库管理tb" xmlns="http://www.w3.org/2000/svg" width="14" height="14" viewBox="0 0 14 14">
  <defs>
    <style>
      .cls-1 {
        fill: #fff;
      }
    </style>
  </defs>
  <path id="路径_157" data-name="路径 157" class="cls-1" d="M65.75,14v-.875h9.625a.875.875,0,0,0,.875-.875V1.75a.875.875,0,0,0-.875-.875H65.75a.875.875,0,0,0-.875.875V9.755H64V1.75A1.75,1.75,0,0,1,65.75,0h9.625a1.75,1.75,0,0,1,1.75,1.75v10.5A1.75,1.75,0,0,1,75.375,14Zm0,0v-.875h9.625a.875.875,0,0,0,.875-.875V1.75a.875.875,0,0,0-.875-.875H65.75a.875.875,0,0,0-.875.875V9.755H64V1.75A1.75,1.75,0,0,1,65.75,0h9.625a1.75,1.75,0,0,1,1.75,1.75v10.5A1.75,1.75,0,0,1,75.375,14Z" transform="translate(-63.125 0)"/>
  <path id="路径_158" data-name="路径 158" class="cls-1" d="M11.839,265.875a.5.5,0,0,1,.044-.237,2.147,2.147,0,0,1-.21.2l.178.2a1.144,1.144,0,0,1-.011-.168Zm-1.34-1.563V263H.875v1.75a.875.875,0,0,0,.875.875h9.005A2.519,2.519,0,0,1,10.5,264.313ZM.875,262.125H10.5a.875.875,0,0,1,.875.875v1.313q-.056,1.248.875,1.313t0,.875H1.75A1.75,1.75,0,0,1,0,264.75V263a.875.875,0,0,1,.875-.875ZM11.375,256a.438.438,0,0,1,0,.875H5.25a.438.438,0,0,1,0-.875Zm-8.312.026h.875v.875H3.062Zm8.312,3.474a.438.438,0,0,1,0,.875H5.25a.438.438,0,0,1,0-.875Zm-8.312.026h.875v.875H3.062Z" transform="translate(0 -252.5)"/>
</svg>
